<?xml version="1.0" standalone="no"?>
<!DOCTYPE svg PUBLIC "-//W3C//DTD SVG 20010904//EN"
 "http://www.w3.org/TR/2001/REC-SVG-20010904/DTD/svg10.dtd">
<svg version="1.0" xmlns="http://www.w3.org/2000/svg"
 width="700.000000pt" height="700.000000pt" viewBox="0 0 700.000000 700.000000"
 preserveAspectRatio="xMidYMid meet">
<metadata>
Created by potrace 1.11, written by Peter Selinger 2001-2013
</metadata>
<g transform="translate(0.000000,700.000000) scale(0.100000,-0.100000)"
fill="#000000" stroke="none">
<path d="M5119 6964 c-3 -85 -1 -506 3 -509 2 -2 69 -5 148 -6 382 -4 497
-105 535 -469 3 -30 8 -75 11 -100 3 -25 7 -364 9 -755 2 -390 6 -723 9 -740
3 -16 8 -67 11 -111 4 -70 17 -154 40 -278 8 -42 45 -145 68 -191 65 -130 170
-232 299 -289 l51 -22 -57 -28 c-71 -35 -162 -103 -201 -151 -93 -114 -156
-269 -180 -442 -2 -12 -6 -34 -9 -50 -3 -15 -8 -62 -11 -103 -3 -41 -8 -93
-11 -115 -3 -22 -7 -357 -9 -745 -1 -388 -5 -727 -9 -755 -3 -27 -8 -75 -11
-105 -17 -181 -62 -302 -135 -367 -30 -27 -113 -68 -155 -77 -16 -3 -41 -9
-55 -12 -14 -3 -92 -8 -175 -11 -82 -2 -154 -5 -159 -7 -7 -1 -11 -347 -7
-504 l1 -23 162 2 c148 3 285 15 363 34 424 101 554 311 611 990 3 39 7 378 9
755 2 377 6 705 9 730 3 25 8 74 11 110 17 179 85 381 154 456 96 106 240 154
459 154 l102 0 0 265 0 265 -107 1 c-159 1 -233 15 -328 60 -140 68 -215 186
-259 409 -34 173 -37 244 -41 975 -5 770 -6 811 -41 1035 -40 254 -113 431
-224 536 -73 70 -247 151 -360 169 -19 3 -57 9 -85 14 -27 5 -57 10 -65 10
-381 14 -370 14 -371 -5z"/>
<path d="M1504 6954 c-139 -18 -163 -24 -254 -54 -340 -113 -454 -332 -506
-970 -3 -41 -8 -383 -9 -760 -2 -377 -6 -703 -9 -725 -2 -22 -7 -69 -11 -105
-4 -35 -8 -67 -10 -70 -2 -3 -6 -25 -10 -50 -21 -139 -95 -295 -168 -353 -114
-90 -210 -117 -429 -119 l-98 -1 0 -264 0 -263 88 -1 c176 -1 266 -19 364 -71
124 -66 205 -200 244 -403 2 -11 6 -31 8 -45 3 -14 8 -54 11 -90 4 -36 9 -78
12 -95 2 -16 6 -340 8 -720 2 -379 6 -724 9 -765 13 -175 26 -283 47 -385 6
-27 13 -60 15 -73 11 -56 56 -179 89 -241 85 -161 241 -261 482 -310 83 -17
138 -21 305 -21 l203 0 0 257 0 258 -25 1 c-14 1 -81 3 -150 5 -247 6 -382 64
-443 192 -40 82 -56 154 -73 317 -11 108 -12 170 -15 820 -1 344 -6 668 -10
720 -12 151 -19 226 -24 251 -3 13 -8 44 -11 69 -10 75 -52 207 -88 278 -65
129 -166 229 -287 284 -27 13 -49 25 -49 28 0 3 33 21 73 40 100 49 202 151
255 256 37 74 67 155 78 214 3 14 9 41 14 60 9 34 16 83 26 185 3 28 8 68 10
90 3 22 7 297 9 610 5 598 12 950 19 1000 3 17 8 54 11 83 16 141 66 266 130
317 89 72 175 95 380 102 83 2 155 6 160 8 7 1 10 93 9 256 -1 140 -2 258 -3
262 -1 12 -269 5 -377 -9z"/>
<path d="M3878 5795 c-2 -2 -41 -6 -88 -9 -111 -9 -120 -10 -221 -34 -155 -37
-299 -102 -428 -191 -80 -56 -201 -170 -249 -236 -20 -27 -39 -52 -43 -55 -17
-14 -103 -175 -129 -243 -28 -70 -58 -181 -75 -277 -10 -55 -14 -326 -5 -367
5 -21 10 -54 13 -73 8 -57 44 -190 82 -300 20 -56 35 -104 33 -106 -2 -1 -24
2 -48 7 -68 16 -265 12 -340 -5 -97 -24 -97 -24 -156 -45 -450 -169 -739 -655
-680 -1146 30 -248 160 -527 319 -684 83 -81 117 -106 215 -152 320 -152 604
-165 884 -38 251 113 430 300 543 569 26 62 60 169 69 218 3 12 7 30 10 40 25
84 25 476 1 617 -7 37 -25 133 -30 160 -10 46 -79 264 -144 457 -121 353 -148
506 -127 708 3 36 11 83 16 105 6 22 12 48 15 58 11 46 79 167 122 218 111
129 258 191 453 191 109 -1 138 -4 217 -27 183 -53 345 -212 411 -402 37 -106
47 -175 46 -323 -1 -251 -52 -480 -174 -790 -45 -112 -95 -216 -252 -520 -200
-387 -293 -643 -353 -975 -4 -21 -12 -80 -21 -155 -20 -167 -6 -380 34 -505
85 -264 300 -463 579 -536 93 -24 271 -34 357 -19 216 38 427 164 674 404 46
45 87 83 93 84 19 7 6 27 -107 160 -152 179 -160 189 -219 260 -27 34 -52 61
-55 61 -3 0 -23 -15 -45 -35 -22 -20 -60 -52 -85 -72 -25 -20 -49 -42 -55 -48
-33 -37 -140 -112 -202 -142 -53 -25 -86 -34 -122 -34 -162 2 -223 79 -216
274 2 53 6 109 9 125 3 15 8 44 10 63 6 34 10 60 21 110 3 14 7 34 9 45 12 56
72 242 111 339 68 173 101 244 287 606 95 187 169 357 229 530 30 85 87 289
95 339 2 14 9 46 14 71 36 172 42 437 14 615 -24 157 -71 305 -135 430 -194
381 -544 625 -959 671 -58 6 -218 12 -222 9z m-1168 -2569 c91 -39 124 -67
165 -140 91 -163 94 -319 9 -487 -52 -104 -218 -193 -342 -183 -79 6 -182 50
-229 96 -82 80 -140 238 -130 352 14 152 65 257 156 320 116 81 246 95 371 42z"/>
</g>
</svg>
