<?xml version="1.0" encoding="UTF-8" standalone="no"?>
<svg viewBox="0 0 64 64" width="64" height="64" version="1.1" xmlns="http://www.w3.org/2000/svg">
  <g transform="matrix(1.9935723,0,0,2.0019177,0.08877553,-0.18261032)">
    <g transform="scale(0.96670978,1.0344366)">
      <path d="m 18.634766,5.4023438 c -1.733459,-10e-8 -3.228867,0.5041519 -4.361328,1.5253906 -1.122892,1.0122398 -1.705079,2.3995654 -1.705079,3.9902346 0,0.759851 0.195452,1.57394 0.558594,2.453125 a 0.65860366,0.65860366 0 0 0 0.0039,0.0059 c 0.1107,0.261137 0.17007,0.433699 0.242188,0.626953 -0.412293,-0.119387 -0.811529,-0.335937 -1.234375,-0.335937 -0.57709,0 -1.150057,0.112763 -1.708984,0.326172 a 0.65860366,0.65860366 0 0 0 -0.0059,0.002 c -1.1883607,0.467219 -2.0975223,1.32863 -2.6171874,2.490234 l 0.00195,0 c -0.2754091,0.612021 -0.4199219,1.244178 -0.4199219,1.878906 0,0.586308 0.1172738,1.166119 0.34375,1.722657 2.469e-4,6.06e-4 -2.472e-4,0.0013 0,0.002 0.4616675,1.174144 1.1678027,2.049935 2.1289062,2.474609 a 0.65860366,0.65860366 0 0 0 0.00781,0.0039 c 0.8286494,0.352413 1.5586814,0.548829 2.2304684,0.548829 0.586313,0 1.170378,-0.116216 1.740235,-0.339844 1.181788,-0.458451 2.082653,-1.322653 2.601562,-2.488282 0.330502,-0.705376 0.488282,-1.498294 0.488282,-2.353515 0,-0.214294 -0.0234,-0.559044 -0.06836,-1.134766 -0.04332,-0.676666 -0.248075,-1.447023 -0.591797,-2.357422 a 0.65860366,0.65860366 0 0 0 -0.0039,-0.01367 c -0.215809,-0.535206 -0.423732,-1.120249 -0.625,-1.75 -0.190291,-0.60397 -0.279297,-1.133312 -0.279297,-1.585938 0,-1.026584 0.278067,-1.7499346 0.820313,-2.3066406 a 0.65860366,0.65860366 0 0 0 0.002,-0.00195 c 0.542177,-0.5638645 1.235121,-0.8457031 2.236328,-0.8457031 1.04226,0 1.792542,0.302684 2.402344,0.9199219 a 0.65860366,0.65860366 0 0 0 0.0039,0.00195 c 0.606572,0.606572 0.90625,1.3689279 0.90625,2.4335939 0,1.572702 -0.589605,3.408904 -1.837891,5.498047 a 0.65860366,0.65860366 0 0 0 -0.002,0 c -1.320121,2.215588 -2.011719,4.290309 -2.011719,6.228515 0,1.135656 0.404802,2.137499 1.199219,2.810547 a 0.65860366,0.65860366 0 0 0 0.0039,0.0039 c 0.75835,0.631956 1.698343,0.957031 2.716797,0.957031 1.227821,0 2.438439,-0.64332 3.644531,-1.773438 a 0.65860366,0.65860366 0 0 0 0.03711,-0.921875 L 24.611328,23.130859 A 0.65860366,0.65860366 0 0 0 23.6875,23.078125 c -0.83238,0.732494 -1.487863,1.012762 -1.851562,1.015625 -0.490025,-0.0128 -0.768941,-0.128804 -0.923829,-0.271484 -0.154694,-0.142502 -0.25969,-0.35908 -0.27539,-0.78711 0.0033,-1.431752 0.595963,-3.259206 1.855469,-5.439453 1.332579,-2.306741 2.033203,-4.364066 2.033203,-6.207031 -10e-7,-1.7094646 -0.553007,-3.1902892 -1.650391,-4.2988282 -1.096122,-1.1162349 -2.559684,-1.6875 -4.240234,-1.6875 z M 12.125,16.433594 c 0.207579,0 0.558685,0.07879 1.007812,0.279297 a 0.65860366,0.65860366 0 0 0 0.0039,0.002 c 0.325823,0.142905 0.588789,0.418207 0.804687,0.976562 a 0.65860366,0.65860366 0 0 0 0.002,0.0059 c 0.09694,0.242349 0.140625,0.469511 0.140625,0.695312 0,0.206742 -0.07961,0.56478 -0.279296,1.021484 -1.7e-4,3.8e-4 -0.0018,-3.79e-4 -0.002,0 -0.141144,0.315308 -0.416373,0.578316 -0.976562,0.794922 -0.255126,0.09921 -0.487088,0.142578 -0.712891,0.142578 -0.211018,0 -0.561402,-0.07771 -1.003906,-0.265624 -0.303312,-0.138564 -0.572345,-0.422337 -0.798828,-0.996094 -0.09779,-0.252742 -0.142578,-0.486321 -0.142578,-0.710938 0,-0.21264 0.07548,-0.556983 0.265625,-0.99414 9.3e-5,-2.15e-4 0.0019,2.15e-4 0.002,0 0.141518,-0.316151 0.419067,-0.583253 0.982422,-0.808594 0.243294,-0.09732 0.47252,-0.142578 0.707031,-0.142578 z" />
    </g>
    <g transform="scale(0.805326,1.2417332)">
      <path d="m 29.052173,23.815766 0.951868,0 q 1.903736,0 2.474857,-0.584719 0.584719,-0.584719 0.584719,-2.529249 l 0,-3.372332 q 0,-2.121306 0.611915,-3.086772 0.611915,-0.965466 2.121306,-1.332615 -1.509391,-0.339953 -2.121306,-1.305419 -0.611915,-0.965466 -0.611915,-3.1003697 l 0,-3.3723321 q 0,-1.9309321 -0.584719,-2.515651 -0.571121,-0.598317 -2.474857,-0.598317 l -0.951868,0 0,-1.9445302 0.856682,0 q 3.38593,0 4.514573,1.0062604 1.142242,0.9926623 1.142242,3.9978453 l 0,3.2635472 q 0,2.0261191 0.734298,2.8148091 0.734298,0.775093 2.66523,0.775093 l 0.843083,0 0,1.94453 -0.843083,0 q -1.930932,0 -2.66523,0.788691 -0.734298,0.78869 -0.734298,2.842005 l 0,3.249949 q 0,3.005183 -1.142242,4.011444 -1.128643,1.00626 -4.514573,1.00626 l -0.856682,0 0,-1.958128 z" />
    </g>
    <g transform="scale(0.80532598,1.2417332)">
      <path d="m 10.700812,23.861077 0,1.958128 -0.8430829,0 q -3.3859302,0 -4.5417698,-1.00626 -1.1422415,-1.006261 -1.1422415,-4.011444 l 0,-3.249949 q 0,-2.053315 -0.7342981,-2.842005 -0.7342982,-0.788691 -2.66523025,-0.788691 l -0.82948492,0 0,-1.94453 0.82948492,0 q 1.94453025,0 2.66523025,-0.775093 0.7342981,-0.78869 0.7342981,-2.8148091 l 0,-3.2635472 q 0,-3.0051831 1.1422415,-3.9978453 1.1558396,-1.00626042 4.5417698,-1.00626042 l 0.8430829,0 0,1.94453022 -0.9246715,0 q -1.917334,0 -2.5020529,0.598317 -0.5847189,0.598317 -0.5847189,2.5156509 l 0,3.3723321 q 0,2.1349038 -0.6255132,3.1003698 -0.6119151,0.965466 -2.1077075,1.305419 1.5093905,0.367149 2.1213056,1.332615 0.6119151,0.965466 0.6119151,3.086772 l 0,3.372332 q 0,1.917334 0.5847189,2.515651 0.5847189,0.598317 2.5020529,0.598317 l 0.9246715,0 z" />
    </g>
  </g>
</svg>
